<mxfile host="app.diagrams.net" modified="2022-02-23T02:53:19.117Z" agent="5.0 (Macintosh; Intel Mac OS X 10_15_7) AppleWebKit/537.36 (KHTML, like Gecko) Chrome/98.0.4758.102 Safari/537.36" etag="-5BLWWYC7OTPHQMkOuHo" version="16.5.6" type="github">
  <diagram id="HBYvkbKKtBoi1ThGaX6z" name="第 1 页">
    <mxGraphModel dx="875" dy="554" grid="1" gridSize="10" guides="1" tooltips="1" connect="1" arrows="1" fold="1" page="1" pageScale="1" pageWidth="850" pageHeight="1100" math="0" shadow="0">
      <root>
        <mxCell id="0" />
        <mxCell id="1" parent="0" />
        <mxCell id="Z4OYbqRXDm_ub-2MiTU--6" style="edgeStyle=orthogonalEdgeStyle;rounded=0;orthogonalLoop=1;jettySize=auto;html=1;exitX=0.5;exitY=0;exitDx=0;exitDy=0;entryX=0.5;entryY=1;entryDx=0;entryDy=0;" edge="1" parent="1" source="Z4OYbqRXDm_ub-2MiTU--1" target="Z4OYbqRXDm_ub-2MiTU--4">
          <mxGeometry relative="1" as="geometry" />
        </mxCell>
        <mxCell id="Z4OYbqRXDm_ub-2MiTU--1" value="字符" style="rounded=0;whiteSpace=wrap;html=1;" vertex="1" parent="1">
          <mxGeometry x="170" y="320" width="50" height="30" as="geometry" />
        </mxCell>
        <mxCell id="Z4OYbqRXDm_ub-2MiTU--7" style="edgeStyle=orthogonalEdgeStyle;rounded=0;orthogonalLoop=1;jettySize=auto;html=1;exitX=0.5;exitY=0;exitDx=0;exitDy=0;" edge="1" parent="1" source="Z4OYbqRXDm_ub-2MiTU--2">
          <mxGeometry relative="1" as="geometry">
            <mxPoint x="265" y="280" as="targetPoint" />
          </mxGeometry>
        </mxCell>
        <mxCell id="Z4OYbqRXDm_ub-2MiTU--2" value="字符" style="rounded=0;whiteSpace=wrap;html=1;" vertex="1" parent="1">
          <mxGeometry x="240" y="320" width="50" height="30" as="geometry" />
        </mxCell>
        <mxCell id="Z4OYbqRXDm_ub-2MiTU--8" style="edgeStyle=orthogonalEdgeStyle;rounded=0;orthogonalLoop=1;jettySize=auto;html=1;exitX=0.5;exitY=0;exitDx=0;exitDy=0;entryX=0.5;entryY=1;entryDx=0;entryDy=0;" edge="1" parent="1" source="Z4OYbqRXDm_ub-2MiTU--3" target="Z4OYbqRXDm_ub-2MiTU--4">
          <mxGeometry relative="1" as="geometry">
            <mxPoint x="270" y="280" as="targetPoint" />
          </mxGeometry>
        </mxCell>
        <mxCell id="Z4OYbqRXDm_ub-2MiTU--3" value="字符" style="rounded=0;whiteSpace=wrap;html=1;" vertex="1" parent="1">
          <mxGeometry x="310" y="320" width="50" height="30" as="geometry" />
        </mxCell>
        <mxCell id="Z4OYbqRXDm_ub-2MiTU--28" style="edgeStyle=orthogonalEdgeStyle;rounded=0;orthogonalLoop=1;jettySize=auto;html=1;exitX=0.5;exitY=0;exitDx=0;exitDy=0;entryX=0.25;entryY=1;entryDx=0;entryDy=0;" edge="1" parent="1" source="Z4OYbqRXDm_ub-2MiTU--4" target="Z4OYbqRXDm_ub-2MiTU--16">
          <mxGeometry relative="1" as="geometry" />
        </mxCell>
        <mxCell id="Z4OYbqRXDm_ub-2MiTU--4" value="行" style="rounded=0;whiteSpace=wrap;html=1;" vertex="1" parent="1">
          <mxGeometry x="170" y="260" width="190" height="20" as="geometry" />
        </mxCell>
        <mxCell id="Z4OYbqRXDm_ub-2MiTU--9" style="edgeStyle=orthogonalEdgeStyle;rounded=0;orthogonalLoop=1;jettySize=auto;html=1;exitX=0.5;exitY=0;exitDx=0;exitDy=0;entryX=0.5;entryY=1;entryDx=0;entryDy=0;" edge="1" parent="1" source="Z4OYbqRXDm_ub-2MiTU--10" target="Z4OYbqRXDm_ub-2MiTU--15">
          <mxGeometry relative="1" as="geometry" />
        </mxCell>
        <mxCell id="Z4OYbqRXDm_ub-2MiTU--10" value="字符" style="rounded=0;whiteSpace=wrap;html=1;" vertex="1" parent="1">
          <mxGeometry x="395" y="320" width="50" height="30" as="geometry" />
        </mxCell>
        <mxCell id="Z4OYbqRXDm_ub-2MiTU--11" style="edgeStyle=orthogonalEdgeStyle;rounded=0;orthogonalLoop=1;jettySize=auto;html=1;exitX=0.5;exitY=0;exitDx=0;exitDy=0;" edge="1" parent="1" source="Z4OYbqRXDm_ub-2MiTU--12">
          <mxGeometry relative="1" as="geometry">
            <mxPoint x="490" y="280" as="targetPoint" />
          </mxGeometry>
        </mxCell>
        <mxCell id="Z4OYbqRXDm_ub-2MiTU--12" value="字符" style="rounded=0;whiteSpace=wrap;html=1;" vertex="1" parent="1">
          <mxGeometry x="465" y="320" width="50" height="30" as="geometry" />
        </mxCell>
        <mxCell id="Z4OYbqRXDm_ub-2MiTU--13" style="edgeStyle=orthogonalEdgeStyle;rounded=0;orthogonalLoop=1;jettySize=auto;html=1;exitX=0.5;exitY=0;exitDx=0;exitDy=0;entryX=0.5;entryY=1;entryDx=0;entryDy=0;" edge="1" parent="1" source="Z4OYbqRXDm_ub-2MiTU--14" target="Z4OYbqRXDm_ub-2MiTU--15">
          <mxGeometry relative="1" as="geometry">
            <mxPoint x="495" y="280" as="targetPoint" />
          </mxGeometry>
        </mxCell>
        <mxCell id="Z4OYbqRXDm_ub-2MiTU--14" value="字符" style="rounded=0;whiteSpace=wrap;html=1;" vertex="1" parent="1">
          <mxGeometry x="535" y="320" width="50" height="30" as="geometry" />
        </mxCell>
        <mxCell id="Z4OYbqRXDm_ub-2MiTU--18" style="edgeStyle=orthogonalEdgeStyle;rounded=0;orthogonalLoop=1;jettySize=auto;html=1;exitX=0.5;exitY=0;exitDx=0;exitDy=0;entryX=0.5;entryY=1;entryDx=0;entryDy=0;" edge="1" parent="1" source="Z4OYbqRXDm_ub-2MiTU--15" target="Z4OYbqRXDm_ub-2MiTU--16">
          <mxGeometry relative="1" as="geometry">
            <mxPoint x="380" y="200" as="targetPoint" />
          </mxGeometry>
        </mxCell>
        <mxCell id="Z4OYbqRXDm_ub-2MiTU--15" value="行" style="rounded=0;whiteSpace=wrap;html=1;" vertex="1" parent="1">
          <mxGeometry x="395" y="260" width="190" height="20" as="geometry" />
        </mxCell>
        <mxCell id="Z4OYbqRXDm_ub-2MiTU--16" value="块" style="rounded=0;whiteSpace=wrap;html=1;" vertex="1" parent="1">
          <mxGeometry x="170" y="180" width="640" height="20" as="geometry" />
        </mxCell>
        <mxCell id="Z4OYbqRXDm_ub-2MiTU--20" style="edgeStyle=orthogonalEdgeStyle;rounded=0;orthogonalLoop=1;jettySize=auto;html=1;exitX=0.5;exitY=0;exitDx=0;exitDy=0;entryX=0.5;entryY=1;entryDx=0;entryDy=0;" edge="1" parent="1" source="Z4OYbqRXDm_ub-2MiTU--21" target="Z4OYbqRXDm_ub-2MiTU--26">
          <mxGeometry relative="1" as="geometry" />
        </mxCell>
        <mxCell id="Z4OYbqRXDm_ub-2MiTU--21" value="字符" style="rounded=0;whiteSpace=wrap;html=1;" vertex="1" parent="1">
          <mxGeometry x="620" y="320" width="50" height="30" as="geometry" />
        </mxCell>
        <mxCell id="Z4OYbqRXDm_ub-2MiTU--22" style="edgeStyle=orthogonalEdgeStyle;rounded=0;orthogonalLoop=1;jettySize=auto;html=1;exitX=0.5;exitY=0;exitDx=0;exitDy=0;" edge="1" parent="1" source="Z4OYbqRXDm_ub-2MiTU--23">
          <mxGeometry relative="1" as="geometry">
            <mxPoint x="715" y="280" as="targetPoint" />
          </mxGeometry>
        </mxCell>
        <mxCell id="Z4OYbqRXDm_ub-2MiTU--23" value="字符" style="rounded=0;whiteSpace=wrap;html=1;" vertex="1" parent="1">
          <mxGeometry x="690" y="320" width="50" height="30" as="geometry" />
        </mxCell>
        <mxCell id="Z4OYbqRXDm_ub-2MiTU--24" style="edgeStyle=orthogonalEdgeStyle;rounded=0;orthogonalLoop=1;jettySize=auto;html=1;exitX=0.5;exitY=0;exitDx=0;exitDy=0;entryX=0.5;entryY=1;entryDx=0;entryDy=0;" edge="1" parent="1" source="Z4OYbqRXDm_ub-2MiTU--25" target="Z4OYbqRXDm_ub-2MiTU--26">
          <mxGeometry relative="1" as="geometry">
            <mxPoint x="720" y="280" as="targetPoint" />
          </mxGeometry>
        </mxCell>
        <mxCell id="Z4OYbqRXDm_ub-2MiTU--25" value="字符" style="rounded=0;whiteSpace=wrap;html=1;" vertex="1" parent="1">
          <mxGeometry x="760" y="320" width="50" height="30" as="geometry" />
        </mxCell>
        <mxCell id="Z4OYbqRXDm_ub-2MiTU--27" style="edgeStyle=orthogonalEdgeStyle;rounded=0;orthogonalLoop=1;jettySize=auto;html=1;exitX=0.5;exitY=0;exitDx=0;exitDy=0;entryX=0.75;entryY=1;entryDx=0;entryDy=0;" edge="1" parent="1" source="Z4OYbqRXDm_ub-2MiTU--26" target="Z4OYbqRXDm_ub-2MiTU--16">
          <mxGeometry relative="1" as="geometry" />
        </mxCell>
        <mxCell id="Z4OYbqRXDm_ub-2MiTU--26" value="行" style="rounded=0;whiteSpace=wrap;html=1;" vertex="1" parent="1">
          <mxGeometry x="620" y="260" width="190" height="20" as="geometry" />
        </mxCell>
      </root>
    </mxGraphModel>
  </diagram>
</mxfile>
